<mxfile host="65bd71144e">
    <diagram id="desESWPnSEYbVSuQPhwf" name="High Level Arch">
        <mxGraphModel dx="1718" dy="763" grid="1" gridSize="10" guides="1" tooltips="1" connect="1" arrows="1" fold="1" page="1" pageScale="1" pageWidth="1169" pageHeight="827" math="0" shadow="0">
            <root>
                <mxCell id="0"/>
                <mxCell id="1" parent="0"/>
                <mxCell id="5" value="&lt;b&gt;&lt;font&gt;OCI Region&lt;/font&gt;&lt;/b&gt;" style="whiteSpace=wrap;html=1;align=center;fontFamily=Oracle Sans;verticalAlign=top;fillColor=#F5F4F2;rounded=1;arcSize=10;strokeColor=#9E9892;fontColor=#312D2A;fontSize=12;" parent="1" vertex="1">
                    <mxGeometry x="40" y="40" width="1080" height="210" as="geometry"/>
                </mxCell>
                <mxCell id="6" value="T" style="rounded=1;whiteSpace=wrap;html=1;fillColor=none;dashed=1;dashPattern=1 4;strokeColor=#000000;strokeWidth=2;" parent="1" vertex="1">
                    <mxGeometry x="70" y="80" width="1020" height="140" as="geometry"/>
                </mxCell>
                <mxCell id="7" value="&lt;b&gt;Compartments&lt;/b&gt;" style="text;html=1;strokeColor=none;fillColor=none;align=center;verticalAlign=middle;whiteSpace=wrap;rounded=0;dashed=1;dashPattern=1 4;strokeWidth=2;fontColor=#000000;" parent="1" vertex="1">
                    <mxGeometry x="550" y="80" width="60" height="30" as="geometry"/>
                </mxCell>
                <mxCell id="8" value="development" style="rounded=0;whiteSpace=wrap;html=1;strokeColor=#000000;strokeWidth=2;fontColor=#000000;fillColor=none;" parent="1" vertex="1">
                    <mxGeometry x="150" y="120" width="250" height="60" as="geometry"/>
                </mxCell>
                <mxCell id="10" value="" style="rounded=1;whiteSpace=wrap;html=1;strokeColor=#000000;strokeWidth=2;fontColor=#000000;fillColor=#f5f4f2;" parent="1" vertex="1">
                    <mxGeometry x="40" y="284" width="1090" height="130" as="geometry"/>
                </mxCell>
                <mxCell id="11" value="&lt;b&gt;Terraform Cloud&lt;/b&gt;" style="text;html=1;strokeColor=none;fillColor=none;align=center;verticalAlign=middle;whiteSpace=wrap;rounded=0;strokeWidth=2;fontColor=#000000;" parent="1" vertex="1">
                    <mxGeometry x="535" y="284" width="100" height="30" as="geometry"/>
                </mxCell>
                <mxCell id="12" value="" style="dashed=0;outlineConnect=0;html=1;align=center;labelPosition=center;verticalLabelPosition=bottom;verticalAlign=top;shape=mxgraph.webicons.oracle;fillColor=#FA3743;gradientColor=#E10E11;strokeColor=#000000;strokeWidth=2;fontColor=#000000;" parent="1" vertex="1">
                    <mxGeometry x="40" y="40" width="40" height="40" as="geometry"/>
                </mxCell>
                <mxCell id="50" style="edgeStyle=orthogonalEdgeStyle;rounded=1;html=1;entryX=0.75;entryY=1;entryDx=0;entryDy=0;strokeColor=#A50040;strokeWidth=2;fontColor=#000000;exitX=0.75;exitY=0;exitDx=0;exitDy=0;fillColor=#d80073;startArrow=classic;startFill=1;dashed=1;" edge="1" parent="1" source="13" target="8">
                    <mxGeometry relative="1" as="geometry">
                        <Array as="points">
                            <mxPoint x="425" y="270"/>
                            <mxPoint x="338" y="270"/>
                        </Array>
                    </mxGeometry>
                </mxCell>
                <mxCell id="13" value="&lt;b&gt;WS&lt;/b&gt;: oci-development" style="rounded=0;whiteSpace=wrap;html=1;strokeColor=#10739e;strokeWidth=2;fillColor=#b1ddf0;fontColor=#000000;" parent="1" vertex="1">
                    <mxGeometry x="110" y="334" width="420" height="60" as="geometry"/>
                </mxCell>
                <mxCell id="43" style="edgeStyle=orthogonalEdgeStyle;rounded=1;html=1;entryX=1;entryY=0.5;entryDx=0;entryDy=0;strokeColor=#A50040;strokeWidth=2;fontColor=#000000;fillColor=#d80073;exitX=0;exitY=1;exitDx=0;exitDy=0;exitPerimeter=0;" edge="1" parent="1" source="16" target="17">
                    <mxGeometry relative="1" as="geometry">
                        <mxPoint x="595" y="770" as="sourcePoint"/>
                        <mxPoint x="370" y="770" as="targetPoint"/>
                        <Array as="points">
                            <mxPoint x="550" y="780"/>
                            <mxPoint x="550" y="793"/>
                        </Array>
                    </mxGeometry>
                </mxCell>
                <mxCell id="16" value="Actor" style="shape=umlActor;verticalLabelPosition=bottom;verticalAlign=top;html=1;outlineConnect=0;strokeWidth=2;fillColor=#b0e3e6;strokeColor=#0e8088;" parent="1" vertex="1">
                    <mxGeometry x="555" y="720" width="30" height="60" as="geometry"/>
                </mxCell>
                <mxCell id="17" value="&lt;b&gt;Local Feature Branch&lt;/b&gt;" style="rounded=1;whiteSpace=wrap;html=1;strokeColor=#000000;strokeWidth=2;fontColor=#000000;fillColor=#f5f4f2;" parent="1" vertex="1">
                    <mxGeometry x="260" y="762.5" width="120" height="60" as="geometry"/>
                </mxCell>
                <mxCell id="18" value="" style="rounded=1;whiteSpace=wrap;html=1;strokeColor=#000000;strokeWidth=2;fontColor=#000000;fillColor=#f5f4f2;" parent="1" vertex="1">
                    <mxGeometry x="80" y="470" width="940" height="240" as="geometry"/>
                </mxCell>
                <mxCell id="19" value="" style="rounded=1;whiteSpace=wrap;html=1;strokeColor=#10739e;strokeWidth=2;fillColor=#b1ddf0;" parent="1" vertex="1">
                    <mxGeometry x="120" y="520" width="210" height="80" as="geometry"/>
                </mxCell>
                <mxCell id="55" style="edgeStyle=orthogonalEdgeStyle;rounded=1;html=1;exitX=1;exitY=0.5;exitDx=0;exitDy=0;entryX=0;entryY=0.5;entryDx=0;entryDy=0;strokeColor=#3333FF;strokeWidth=2;fontColor=#000000;startArrow=none;startFill=0;" edge="1" parent="1" source="20" target="21">
                    <mxGeometry relative="1" as="geometry"/>
                </mxCell>
                <mxCell id="20" value="Init&lt;br&gt;Validate" style="rounded=1;whiteSpace=wrap;html=1;strokeColor=#000000;strokeWidth=2;fontColor=#000000;fillColor=#f5f4f2;" parent="1" vertex="1">
                    <mxGeometry x="130" y="530" width="80" height="55" as="geometry"/>
                </mxCell>
                <mxCell id="45" style="edgeStyle=orthogonalEdgeStyle;rounded=1;html=1;entryX=0.25;entryY=1;entryDx=0;entryDy=0;strokeColor=#A50040;strokeWidth=2;fontColor=#000000;fillColor=#d80073;" edge="1" parent="1" source="21" target="13">
                    <mxGeometry relative="1" as="geometry">
                        <Array as="points">
                            <mxPoint x="270" y="450"/>
                            <mxPoint x="215" y="450"/>
                        </Array>
                    </mxGeometry>
                </mxCell>
                <mxCell id="21" value="Plan" style="rounded=1;whiteSpace=wrap;html=1;strokeColor=#000000;strokeWidth=2;fontColor=#000000;fillColor=#f5f4f2;" parent="1" vertex="1">
                    <mxGeometry x="230" y="530" width="80" height="55" as="geometry"/>
                </mxCell>
                <mxCell id="22" value="&lt;b&gt;Github / Github Actions&lt;/b&gt;" style="text;html=1;strokeColor=none;fillColor=none;align=center;verticalAlign=middle;whiteSpace=wrap;rounded=0;strokeWidth=2;fontColor=#000000;" vertex="1" parent="1">
                    <mxGeometry x="555" y="470" width="140" height="30" as="geometry"/>
                </mxCell>
                <mxCell id="23" value="" style="rounded=1;whiteSpace=wrap;html=1;strokeColor=#10739e;strokeWidth=2;fillColor=#b1ddf0;" vertex="1" parent="1">
                    <mxGeometry x="400" y="520" width="210" height="80" as="geometry"/>
                </mxCell>
                <mxCell id="56" style="edgeStyle=orthogonalEdgeStyle;rounded=1;html=1;exitX=1;exitY=0.5;exitDx=0;exitDy=0;entryX=0;entryY=0.5;entryDx=0;entryDy=0;strokeColor=#3333FF;strokeWidth=2;fontColor=#000000;startArrow=none;startFill=0;" edge="1" parent="1" source="24" target="26">
                    <mxGeometry relative="1" as="geometry"/>
                </mxCell>
                <mxCell id="24" value="Init&lt;br&gt;Validate" style="rounded=1;whiteSpace=wrap;html=1;strokeColor=#000000;strokeWidth=2;fontColor=#000000;fillColor=#f5f4f2;" vertex="1" parent="1">
                    <mxGeometry x="410" y="530" width="80" height="55" as="geometry"/>
                </mxCell>
                <mxCell id="48" style="edgeStyle=orthogonalEdgeStyle;rounded=1;html=1;entryX=0.75;entryY=1;entryDx=0;entryDy=0;strokeColor=#A50040;strokeWidth=2;fontColor=#000000;fillColor=#d80073;" edge="1" parent="1" source="26" target="13">
                    <mxGeometry relative="1" as="geometry">
                        <Array as="points">
                            <mxPoint x="550" y="450"/>
                            <mxPoint x="425" y="450"/>
                        </Array>
                    </mxGeometry>
                </mxCell>
                <mxCell id="26" value="Apply" style="rounded=1;whiteSpace=wrap;html=1;strokeColor=#000000;strokeWidth=2;fontColor=#000000;fillColor=#f5f4f2;" vertex="1" parent="1">
                    <mxGeometry x="510" y="530" width="80" height="55" as="geometry"/>
                </mxCell>
                <mxCell id="40" style="edgeStyle=orthogonalEdgeStyle;rounded=1;html=1;entryX=0.5;entryY=1;entryDx=0;entryDy=0;strokeColor=#A50040;strokeWidth=2;fontColor=#000000;fillColor=#d80073;" edge="1" parent="1" source="27" target="20">
                    <mxGeometry relative="1" as="geometry"/>
                </mxCell>
                <mxCell id="27" value="PR to Develop Branch" style="rounded=1;whiteSpace=wrap;html=1;strokeColor=#000000;strokeWidth=2;fontColor=#000000;fillColor=#f5f4f2;" vertex="1" parent="1">
                    <mxGeometry x="130" y="630" width="80" height="55" as="geometry"/>
                </mxCell>
                <mxCell id="47" style="edgeStyle=orthogonalEdgeStyle;rounded=1;html=1;entryX=0.5;entryY=1;entryDx=0;entryDy=0;strokeColor=#A50040;strokeWidth=2;fontColor=#000000;fillColor=#d80073;" edge="1" parent="1" source="28" target="24">
                    <mxGeometry relative="1" as="geometry"/>
                </mxCell>
                <mxCell id="28" value="Merge to Develop Branch" style="rounded=1;whiteSpace=wrap;html=1;strokeColor=#000000;strokeWidth=2;fontColor=#000000;fillColor=#f5f4f2;" vertex="1" parent="1">
                    <mxGeometry x="410" y="630" width="80" height="55" as="geometry"/>
                </mxCell>
                <mxCell id="30" value="&lt;b&gt;WS&lt;/b&gt;: oci-production" style="rounded=0;whiteSpace=wrap;html=1;strokeColor=#3A5431;strokeWidth=2;fillColor=#6d8764;fontColor=#000000;" vertex="1" parent="1">
                    <mxGeometry x="640" y="334" width="420" height="60" as="geometry"/>
                </mxCell>
                <mxCell id="31" value="Merge to Develop Branch" style="rounded=1;whiteSpace=wrap;html=1;strokeColor=#000000;strokeWidth=2;fontColor=#000000;fillColor=#f5f4f2;" vertex="1" parent="1">
                    <mxGeometry x="720" y="630" width="80" height="55" as="geometry"/>
                </mxCell>
                <mxCell id="32" value="" style="rounded=1;whiteSpace=wrap;html=1;strokeColor=#3A5431;strokeWidth=2;fillColor=#6d8764;fontColor=#ffffff;" vertex="1" parent="1">
                    <mxGeometry x="710" y="520" width="210" height="80" as="geometry"/>
                </mxCell>
                <mxCell id="57" style="edgeStyle=orthogonalEdgeStyle;rounded=1;html=1;strokeColor=#3333FF;strokeWidth=2;fontColor=#000000;startArrow=none;startFill=0;" edge="1" parent="1" source="33" target="35">
                    <mxGeometry relative="1" as="geometry"/>
                </mxCell>
                <mxCell id="33" value="Init&lt;br&gt;Validate" style="rounded=1;whiteSpace=wrap;html=1;strokeColor=#000000;strokeWidth=2;fontColor=#000000;fillColor=#f5f4f2;" vertex="1" parent="1">
                    <mxGeometry x="720" y="530" width="80" height="55" as="geometry"/>
                </mxCell>
                <mxCell id="52" style="edgeStyle=elbowEdgeStyle;rounded=1;html=1;strokeColor=#A50040;strokeWidth=2;fontColor=#000000;fillColor=#d80073;exitX=0.5;exitY=0;exitDx=0;exitDy=0;" edge="1" parent="1" source="35" target="30">
                    <mxGeometry relative="1" as="geometry"/>
                </mxCell>
                <mxCell id="35" value="Apply" style="rounded=1;whiteSpace=wrap;html=1;strokeColor=#000000;strokeWidth=2;fontColor=#000000;fillColor=#f5f4f2;" vertex="1" parent="1">
                    <mxGeometry x="820" y="530" width="80" height="55" as="geometry"/>
                </mxCell>
                <mxCell id="36" value="production" style="rounded=0;whiteSpace=wrap;html=1;strokeColor=#000000;strokeWidth=2;fontColor=#000000;fillColor=none;" vertex="1" parent="1">
                    <mxGeometry x="725" y="120" width="250" height="60" as="geometry"/>
                </mxCell>
                <mxCell id="39" style="edgeStyle=orthogonalEdgeStyle;rounded=1;html=1;entryX=0.5;entryY=1;entryDx=0;entryDy=0;strokeColor=#A50040;strokeWidth=2;fontColor=#000000;fillColor=#d80073;exitX=0;exitY=0.5;exitDx=0;exitDy=0;" edge="1" parent="1" source="17" target="27">
                    <mxGeometry relative="1" as="geometry">
                        <mxPoint x="250" y="770" as="sourcePoint"/>
                    </mxGeometry>
                </mxCell>
                <mxCell id="42" style="edgeStyle=orthogonalEdgeStyle;rounded=1;html=1;entryX=0.5;entryY=1;entryDx=0;entryDy=0;strokeColor=#A50040;strokeWidth=2;fontColor=#000000;fillColor=#d80073;exitX=0;exitY=0.3333333333333333;exitDx=0;exitDy=0;exitPerimeter=0;" edge="1" parent="1" source="16" target="28">
                    <mxGeometry relative="1" as="geometry">
                        <mxPoint x="530" y="780" as="sourcePoint"/>
                    </mxGeometry>
                </mxCell>
                <mxCell id="44" style="edgeStyle=orthogonalEdgeStyle;rounded=1;html=1;strokeColor=#A50040;strokeWidth=2;fontColor=#000000;fillColor=#d80073;exitX=1;exitY=0.3333333333333333;exitDx=0;exitDy=0;exitPerimeter=0;" edge="1" parent="1" source="16" target="31">
                    <mxGeometry relative="1" as="geometry">
                        <mxPoint x="625" y="770" as="sourcePoint"/>
                    </mxGeometry>
                </mxCell>
                <mxCell id="46" style="edgeStyle=orthogonalEdgeStyle;rounded=1;html=1;entryX=0.25;entryY=0;entryDx=0;entryDy=0;strokeColor=#A50040;strokeWidth=2;fontColor=#000000;exitX=0.25;exitY=1;exitDx=0;exitDy=0;fillColor=#d80073;dashed=1;" edge="1" parent="1" source="8" target="13">
                    <mxGeometry relative="1" as="geometry"/>
                </mxCell>
                <mxCell id="54" value="" style="endArrow=classic;html=1;rounded=1;strokeColor=#A50040;strokeWidth=2;fontColor=#000000;exitX=0.5;exitY=0;exitDx=0;exitDy=0;fillColor=#d80073;edgeStyle=orthogonalEdgeStyle;startArrow=classic;startFill=1;dashed=1;" edge="1" parent="1" source="30" target="36">
                    <mxGeometry width="50" height="50" relative="1" as="geometry">
                        <mxPoint x="610" y="480" as="sourcePoint"/>
                        <mxPoint x="660" y="430" as="targetPoint"/>
                    </mxGeometry>
                </mxCell>
                <mxCell id="51" style="edgeStyle=orthogonalEdgeStyle;rounded=1;html=1;entryX=0.5;entryY=1;entryDx=0;entryDy=0;strokeColor=#A50040;strokeWidth=2;fontColor=#000000;fillColor=#d80073;" edge="1" parent="1" source="31" target="33">
                    <mxGeometry relative="1" as="geometry"/>
                </mxCell>
            </root>
        </mxGraphModel>
    </diagram>
</mxfile>
